<!-- Generated by IcoMoon.io -->
<svg version="1.1" xmlns="http://www.w3.org/2000/svg" width="1024" height="1024" viewBox="0 0 1024 1024">
<title></title>
<g id="icomoon-ignore">
</g>
<path fill="#e40" d="M891.034 705.479c8.725 9.321 16.55 17.445 23.433 24.327 6.898 6.9 14.308 13.588 22.221 20.079 7.906 6.483 13.696 9.735 17.336 9.735 6.907 0 20.281-9.933 40.155-29.813 19.879-19.864 29.811-33.252 29.811-40.153 0-3.246-5.784-11.553-17.343-24.941-11.553-13.375-26.348-29.199-44.406-47.46-18.057-18.253-35.594-35.682-52.624-52.317-17.051-16.644-33.67-32.76-49.902-48.381-16.22-15.614-25.555-24.634-27.991-27.070-4.053-4.053-8.722-6.080-13.986-6.080-6.898 0-20.29 9.933-40.155 29.808-19.879 19.866-29.811 33.254-29.811 40.155 0 3.646 3.243 9.421 9.735 17.343 6.491 7.906 13.187 15.316 20.077 22.214 6.883 6.883 15.018 14.702 24.336 23.425 9.328 8.722 14.594 13.688 15.819 14.907l-58.407 58.399-216.006-215.985c53.148-71.386 79.717-145.413 79.717-222.076 0-66.113-20.801-119.963-62.361-161.535-41.581-41.578-95.423-62.365-161.543-62.365-64.899 0-128.381 19.269-190.435 57.792-62.058 38.535-112.363 88.834-150.894 150.894-38.531 62.056-57.8 125.539-57.8 190.433 0 66.124 20.784 119.948 62.365 161.539 41.578 41.591 95.421 62.376 161.535 62.376 76.666 0 150.685-26.567 222.078-79.715l408.25 408.261c11.363 11.354 25.137 17.036 41.378 17.036 17.029 0 33.465-7.928 49.269-23.74 15.825-15.825 23.747-32.24 23.747-49.284 0-16.232-5.681-30.030-17.036-41.378l-133.852-133.852 58.401-58.399c1.208 1.225 6.182 6.491 14.89 15.825zM472.153 344.082c-22.709 22.711-50.294 34.068-82.743 34.068-17.040 0-33.875-3.862-50.505-11.572 7.708 16.639 11.563 33.47 11.563 50.505 0 32.453-11.352 60.033-34.068 82.743-22.717 22.707-50.305 34.066-82.75 34.066-32.449 0-60.027-11.348-82.743-34.066-22.711-22.711-34.068-50.29-34.068-82.743 0-32.449 11.352-60.033 34.068-82.743 22.709-22.711 50.294-34.068 82.743-34.068 17.032 0 33.868 3.855 50.495 11.559-7.706-16.631-11.559-33.47-11.559-50.503 0-32.449 11.352-60.033 34.068-82.743s50.301-34.068 82.75-34.068c32.449 0 60.033 11.352 82.743 34.068s34.068 50.294 34.068 82.743c-0.002 32.449-11.361 60.036-34.062 82.754z"></path>
</svg>
